<svg width="20" height="16" viewBox="0 0 20 16" fill="none" xmlns="http://www.w3.org/2000/svg">
<path d="M18.38 4.57L17.15 6.42C17.7432 7.60307 18.0336 8.91483 17.9952 10.2377C17.9568 11.5606 17.5908 12.8533 16.93 14H3.06999C2.21116 12.5101 1.85528 10.7831 2.05513 9.07507C2.25497 7.36701 2.9999 5.76882 4.17947 4.51743C5.35904 3.26603 6.91046 2.42804 8.60373 2.1277C10.297 1.82735 12.042 2.08063 13.58 2.85L15.43 1.62C13.5465 0.412215 11.3123 -0.128996 9.08488 0.0829355C6.85744 0.294867 4.76543 1.2477 3.14348 2.78901C1.52153 4.33033 0.463351 6.37107 0.138207 8.58481C-0.186938 10.7986 0.23974 13.0574 1.34999 15C1.5245 15.3023 1.77508 15.5536 2.07682 15.7291C2.37856 15.9045 2.72096 15.9979 3.06999 16H16.92C17.2724 16.0014 17.6189 15.9096 17.9245 15.734C18.2301 15.5584 18.4838 15.3052 18.66 15C19.5814 13.4039 20.0438 11.5843 19.9961 9.74195C19.9485 7.89964 19.3926 6.10632 18.39 4.56L18.38 4.57ZM8.58999 11.41C8.77574 11.596 8.99631 11.7435 9.23911 11.8441C9.4819 11.9448 9.74216 11.9966 10.005 11.9966C10.2678 11.9966 10.5281 11.9448 10.7709 11.8441C11.0137 11.7435 11.2342 11.596 11.42 11.41L17.08 2.92L8.58999 8.58C8.40404 8.76575 8.25652 8.98632 8.15587 9.22912C8.05522 9.47191 8.00342 9.73217 8.00342 9.995C8.00342 10.2578 8.05522 10.5181 8.15587 10.7609C8.25652 11.0037 8.40404 11.2243 8.58999 11.41Z" fill="white"/>
</svg>
