<svg width="20" height="20" viewBox="0 0 20 20" fill="none" xmlns="http://www.w3.org/2000/svg">
<path d="M17.14 10.94C17.18 10.64 17.2 10.33 17.2 10C17.2 9.68 17.18 9.36 17.13 9.06L19.16 7.48C19.2475 7.40789 19.3072 7.30769 19.3291 7.19646C19.351 7.08524 19.3336 6.96986 19.28 6.87L17.36 3.55C17.3035 3.44956 17.2132 3.37237 17.1052 3.33211C16.9972 3.29184 16.8785 3.29109 16.77 3.33L14.38 4.29C13.88 3.91 13.35 3.59 12.76 3.35L12.4 0.809997C12.3823 0.695527 12.3241 0.591204 12.236 0.515973C12.148 0.440742 12.0358 0.399592 11.92 0.399997H8.07999C7.83999 0.399997 7.64999 0.569997 7.60999 0.809997L7.24999 3.35C6.65999 3.59 6.12 3.92 5.62999 4.29L3.23999 3.33C3.01999 3.25 2.76999 3.33 2.64999 3.55L0.739995 6.87C0.619995 7.08 0.659995 7.34 0.859995 7.48L2.88999 9.06C2.83999 9.36 2.79999 9.69 2.79999 10C2.79999 10.31 2.81999 10.64 2.86999 10.94L0.839995 12.52C0.752519 12.5921 0.692748 12.6923 0.670867 12.8035C0.648986 12.9148 0.666348 13.0301 0.719995 13.13L2.63999 16.45C2.75999 16.67 3.00999 16.74 3.22999 16.67L5.61999 15.71C6.11999 16.09 6.64999 16.41 7.23999 16.65L7.6 19.19C7.65 19.43 7.83999 19.6 8.07999 19.6H11.92C12.16 19.6 12.36 19.43 12.39 19.19L12.75 16.65C13.34 16.41 13.88 16.09 14.37 15.71L16.76 16.67C16.98 16.75 17.23 16.67 17.35 16.45L19.27 13.13C19.39 12.91 19.34 12.66 19.15 12.52L17.14 10.94ZM9.99999 13.6C8.01999 13.6 6.39999 11.98 6.39999 10C6.39999 8.02 8.01999 6.4 9.99999 6.4C11.98 6.4 13.6 8.02 13.6 10C13.6 11.98 11.98 13.6 9.99999 13.6Z" fill="white"/>
</svg>
